<?xml version="1.0" encoding="iso-8859-1"?>
<!-- Generator: Adobe Illustrator 16.0.0, SVG Export Plug-In . SVG Version: 6.00 Build 0)  -->
<!DOCTYPE svg PUBLIC "-//W3C//DTD SVG 1.1//EN" "http://www.w3.org/Graphics/SVG/1.1/DTD/svg11.dtd">
<svg version="1.1" id="Layer_1" xmlns="http://www.w3.org/2000/svg" xmlns:xlink="http://www.w3.org/1999/xlink" x="0px" y="0px"
	 width="387.403px" height="234.041px" viewBox="0 0 387.403 234.041" style="enable-background:new 0 0 387.403 234.041;"
	 xml:space="preserve">
<g>
	<path style="fill-rule:evenodd;clip-rule:evenodd;" d="M193.702,0c106.96,0,193.702,52.403,193.702,117.021
		c0,64.618-86.741,117.021-193.702,117.021S0,181.639,0,117.021C0,52.403,86.741,0,193.702,0L193.702,0z"/>
	<path style="fill-rule:evenodd;clip-rule:evenodd;fill:#FFFFFF;" d="M203.131,41.249l7.518-17.511l6.852,63.786
		c38.219,14.208,71.322-23.208,45.873-55.194c57.371,5.615,104.544,41.751,104.405,85.055
		c-0.099,31.074-24.419,60.188-76.555,75.854c23.408-40.758-19.995-85.585-54.394-13.244c-3.788-40.726-39.544-12.99-43.128,32.601
		c-7.013-55.309-40.481-67.382-42.623-34.433c-39.303-65.494-75.883-31.829-53.705,16.951c-46.813-16.77-77.75-45.373-77.75-77.729
		c0-36.572,38.626-72.226,96.826-83.666c-24.751,33.726,4.464,66.312,48.15,53.586l5.856-64.201l7.339,18.103
		C186.112,35.28,194.579,36.312,203.131,41.249L203.131,41.249z"/>
</g>
</svg>
